<svg width="26" height="26" viewBox="0 0 26 26" fill="none" xmlns="http://www.w3.org/2000/svg">
<g id="email_svgrepo.com">
<path id="Vector" d="M17.3333 13C17.3333 15.3932 15.3932 17.3333 13 17.3333C10.6068 17.3333 8.66667 15.3932 8.66667 13C8.66667 10.6068 10.6068 8.66667 13 8.66667C15.3932 8.66667 17.3333 10.6068 17.3333 13ZM17.3333 13V14.625C17.3333 16.1208 18.5459 17.3333 20.0417 17.3333C21.5374 17.3333 22.75 16.1208 22.75 14.625V13C22.75 7.61523 18.3848 3.25 13 3.25C7.61523 3.25 3.25 7.61523 3.25 13C3.25 18.3848 7.61523 22.75 13 22.75H17.3333" stroke="url(#paint0_linear_89_211)" stroke-width="2" stroke-linecap="round" stroke-linejoin="round"/>
</g>
<defs>
<linearGradient id="paint0_linear_89_211" x1="-0.40625" y1="2.03125" x2="20.3125" y2="22.75" gradientUnits="userSpaceOnUse">
<stop stop-color="#12266D"/>
<stop offset="1" stop-color="#00D1FF"/>
</linearGradient>
</defs>
</svg>
