<svg width="24" height="27" viewBox="0 0 24 27" fill="none" xmlns="http://www.w3.org/2000/svg">
<g id="phone-icon">
<path id="Vector" d="M23.11 20.4099V25.5374C23.11 25.9544 23.0152 26.2684 22.7399 26.5824C22.46 26.9016 22.1937 26.9994 21.8281 26.9994C16.4072 26.8913 10.0881 24.9248 5.95805 20.2143C1.82804 15.5039 0.0947871 8.28639 0 2.10364C0 1.68665 0.0902737 1.37777 0.365608 1.06374C0.640942 0.74971 0.911762 0.641602 1.28188 0.641602H5.7775L6.933 8.54894L4.77546 11.7459C5.41641 13.8205 6.7028 16.0238 8.16523 17.6969C9.63218 19.3701 11.555 20.8218 13.3695 21.5528L16.1725 19.0921L23.11 20.4099Z" fill="url(#paint0_linear_89_217)"/>
</g>
<defs>
<linearGradient id="paint0_linear_89_217" x1="-4.33313" y1="-1.00576" x2="23.4316" y2="23.3378" gradientUnits="userSpaceOnUse">
<stop stop-color="#12266D"/>
<stop offset="1" stop-color="#00D1FF"/>
</linearGradient>
</defs>
</svg>
