<svg width="20" height="20" viewBox="0 0 20 20" fill="none" xmlns="http://www.w3.org/2000/svg">
<g id="email_svgrepo.com">
<path id="Vector" d="M13.3333 10C13.3333 11.8409 11.8409 13.3333 10 13.3333C8.15905 13.3333 6.66667 11.8409 6.66667 10C6.66667 8.15905 8.15905 6.66667 10 6.66667C11.8409 6.66667 13.3333 8.15905 13.3333 10ZM13.3333 10V11.25C13.3333 12.4006 14.2661 13.3333 15.4167 13.3333C16.5672 13.3333 17.5 12.4006 17.5 11.25V10C17.5 5.85787 14.1422 2.5 10 2.5C5.85787 2.5 2.5 5.85787 2.5 10C2.5 14.1422 5.85787 17.5 10 17.5H13.3333" stroke="url(#paint0_linear_80_11)" stroke-width="2" stroke-linecap="round" stroke-linejoin="round"/>
</g>
<defs>
<linearGradient id="paint0_linear_80_11" x1="-0.3125" y1="1.5625" x2="15.625" y2="17.5" gradientUnits="userSpaceOnUse">
<stop stop-color="#12266D"/>
<stop offset="1" stop-color="#00D1FF"/>
</linearGradient>
</defs>
</svg>
