<svg width="271" height="64" viewBox="0 0 271 64" fill="none" xmlns="http://www.w3.org/2000/svg">
<g clip-path="url(#clip0_82_266)">
<path d="M70.9021 36.5081V0.74198H77.2063V31.1486H91.9887V36.5081H70.9021ZM98.1817 36.5081V0.74198H104.486V36.5081H98.1817ZM127.324 37.1643C124.244 37.1643 121.527 36.4169 119.172 34.9221C116.817 33.3909 114.969 31.2398 113.628 28.4689C112.324 25.6616 111.672 22.3257 111.672 18.461C111.672 14.5963 112.324 11.2968 113.628 8.5624C114.969 5.82799 116.817 3.73161 119.172 2.27325C121.527 0.8149 124.244 0.0857239 127.324 0.0857239C130.44 0.0857239 133.175 0.8149 135.53 2.27325C137.885 3.73161 139.715 5.82799 141.019 8.5624C142.36 11.2968 143.03 14.5963 143.03 18.461C143.03 22.3257 142.36 25.6616 141.019 28.4689C139.715 31.2398 137.885 33.3909 135.53 34.9221C133.175 36.4169 130.44 37.1643 127.324 37.1643ZM127.324 31.6408C130.114 31.6408 132.342 30.4559 134.009 28.0861C135.675 25.6798 136.508 22.4714 136.508 18.461C136.508 14.4505 135.675 11.315 134.009 9.05459C132.342 6.75769 130.114 5.60923 127.324 5.60923C124.534 5.60923 122.306 6.75769 120.639 9.05459C118.973 11.315 118.139 14.4505 118.139 18.461C118.139 22.4714 118.973 25.6798 120.639 28.0861C122.306 30.4559 124.534 31.6408 127.324 31.6408ZM150.14 36.5081V0.74198H156.607L167.694 20.8672L171.335 28.4689H171.553C171.409 26.646 171.226 24.6589 171.009 22.5079C170.828 20.3569 170.737 18.2787 170.737 16.2734V0.74198H176.77V36.5081H170.303L159.216 16.3828L155.575 8.78115H155.357C155.503 10.677 155.666 12.664 155.846 14.7422C156.064 16.8203 156.172 18.862 156.172 20.8672V36.5081H150.14ZM185.806 36.5081V0.74198H192.11V31.1486H206.893V36.5081H185.806ZM224.595 37.1643C221.878 37.1643 219.506 36.6175 217.476 35.5237C215.447 34.4299 213.871 32.6799 212.747 30.2736C211.661 27.8673 211.117 24.7136 211.117 20.8126V0.74198H217.421V21.3048C217.421 23.8933 217.712 25.9533 218.291 27.4845C218.908 28.9793 219.758 30.0549 220.845 30.7111C221.932 31.3309 223.182 31.6408 224.595 31.6408C226.045 31.6408 227.312 31.3309 228.399 30.7111C229.523 30.0549 230.393 28.9793 231.008 27.4845C231.66 25.9533 231.986 23.8933 231.986 21.3048V0.74198H238.019V20.8126C238.019 24.7136 237.475 27.8673 236.388 30.2736C235.301 32.6799 233.744 34.4299 231.715 35.5237C229.723 36.6175 227.349 37.1643 224.595 37.1643ZM242.557 36.5081L252.666 18.0781L243.21 0.74198H250.22L254.133 8.67177C254.568 9.47387 254.985 10.3306 255.383 11.2421C255.818 12.1171 256.307 13.0833 256.851 14.1406H257.068C257.503 13.0833 257.901 12.1171 258.264 11.2421C258.662 10.3306 259.061 9.47387 259.459 8.67177L263.209 0.74198H269.894L260.438 18.3516L270.546 36.5081H263.535L259.188 28.0861C258.716 27.1382 258.246 26.2085 257.775 25.297C257.34 24.3491 256.851 23.3282 256.307 22.2345H256.09C255.618 23.3282 255.166 24.3491 254.731 25.297C254.333 26.2085 253.916 27.1382 253.481 28.0861L249.242 36.5081H242.557Z" fill="white"/>
<path d="M76.6327 59.431C75.2866 59.431 74.094 59.071 73.0546 58.3508C72.0153 57.6136 71.1974 56.5849 70.6011 55.2647C70.0047 53.9444 69.7065 52.3842 69.7065 50.5839C69.7065 48.8008 70.0047 47.2577 70.6011 45.9546C71.1974 44.6516 72.0153 43.6486 73.0546 42.9456C74.094 42.2255 75.2866 41.8654 76.6327 41.8654C77.9958 41.8654 79.197 42.2255 80.2363 42.9456C81.2757 43.6486 82.0935 44.6516 82.6899 45.9546C83.2862 47.2577 83.5844 48.8008 83.5844 50.5839C83.5844 52.3842 83.2862 53.9444 82.6899 55.2647C82.0935 56.5849 81.2757 57.6136 80.2363 58.3508C79.197 59.071 77.9958 59.431 76.6327 59.431ZM76.6327 58.3508C77.7743 58.3508 78.771 58.0337 79.6229 57.3993C80.4749 56.7477 81.1394 55.839 81.6164 54.6731C82.0935 53.5072 82.3321 52.1442 82.3321 50.5839C82.3321 49.0237 82.0935 47.6778 81.6164 46.5462C81.1394 45.3974 80.4749 44.5144 79.6229 43.8972C78.771 43.2628 77.7743 42.9456 76.6327 42.9456C75.4911 42.9456 74.4944 43.2628 73.6424 43.8972C72.7905 44.5144 72.126 45.3974 71.6489 46.5462C71.1719 47.6778 70.9333 49.0237 70.9333 50.5839C70.9333 52.1442 71.1719 53.5072 71.6489 54.6731C72.126 55.839 72.7905 56.7477 73.6424 57.3993C74.4944 58.0337 75.4911 58.3508 76.6327 58.3508ZM92.1938 59.1224V43.2028H86.8267V42.1741H98.7366V43.2028H93.3695V59.1224H92.1938ZM103.629 59.1224V42.1741H112.855V43.2028H104.804V49.6066H111.552V50.6354H104.804V58.0937H113.111V59.1224H103.629ZM117.242 59.431C117.071 59.431 116.893 59.4139 116.705 59.3796C116.518 59.3453 116.322 59.2938 116.117 59.2253L116.424 58.0937C116.56 58.128 116.68 58.1622 116.782 58.1965C116.901 58.2137 117.02 58.2223 117.14 58.2223C117.446 58.2223 117.727 58.1194 117.983 57.9136C118.256 57.6907 118.52 57.2364 118.775 56.5506C119.031 55.8647 119.295 54.8189 119.568 53.4129C119.908 51.5269 120.241 49.6838 120.564 47.8835C120.888 46.0832 121.22 44.1801 121.561 42.1741H129.177V59.1224H128.002V43.2028H122.507C122.183 44.9516 121.876 46.6833 121.587 48.3979C121.314 50.0953 121.016 51.8098 120.692 53.5415C120.402 55.1704 120.096 56.4134 119.772 57.2707C119.448 58.1108 119.082 58.6852 118.673 58.9938C118.264 59.2853 117.787 59.431 117.242 59.431ZM135.803 59.1224V42.1741H136.979V49.5552H140.608C142.431 49.5552 143.888 49.9153 144.979 50.6354C146.069 51.3555 146.614 52.5128 146.614 54.1073C146.614 55.7704 146.095 57.0221 145.055 57.8622C144.033 58.7023 142.576 59.1224 140.685 59.1224H135.803ZM136.979 58.1194H140.404C142.074 58.1194 143.326 57.8022 144.161 57.1678C145.013 56.5334 145.439 55.5304 145.439 54.1588C145.439 52.89 145.004 51.9727 144.135 51.4069C143.283 50.8411 142.005 50.5582 140.302 50.5582H136.979V58.1194ZM158.768 59.1224V42.1741H159.944V49.6066H163.446L165.924 45.0802C166.419 44.1544 166.836 43.4685 167.177 43.0228C167.535 42.5598 167.876 42.2512 168.199 42.0969C168.522 41.9426 168.898 41.8654 169.324 41.8654C169.562 41.8654 169.784 41.9083 169.988 41.994L169.784 43.1256C169.665 43.0914 169.562 43.0742 169.477 43.0742C169.41 43.0742 169.332 43.0742 169.247 43.0742C169.009 43.0742 168.778 43.1256 168.558 43.2285C168.352 43.3314 168.114 43.5628 167.841 43.9229C167.585 44.2658 167.253 44.8059 166.845 45.5432L164.391 50.0953L170.347 59.1224H169.017L163.42 50.6097H159.944V59.1224H158.768ZM180.21 59.431C178.863 59.431 177.67 59.071 176.632 58.3508C175.592 57.6136 174.774 56.5849 174.177 55.2647C173.581 53.9444 173.283 52.3842 173.283 50.5839C173.283 48.8008 173.581 47.2577 174.177 45.9546C174.774 44.6516 175.592 43.6486 176.632 42.9456C177.67 42.2255 178.863 41.8654 180.21 41.8654C181.573 41.8654 182.773 42.2255 183.813 42.9456C184.853 43.6486 185.67 44.6516 186.266 45.9546C186.862 47.2577 187.16 48.8008 187.16 50.5839C187.16 52.3842 186.862 53.9444 186.266 55.2647C185.67 56.5849 184.853 57.6136 183.813 58.3508C182.773 59.071 181.573 59.431 180.21 59.431ZM180.21 58.3508C181.351 58.3508 182.347 58.0337 183.199 57.3993C184.051 56.7477 184.716 55.839 185.194 54.6731C185.67 53.5072 185.909 52.1442 185.909 50.5839C185.909 49.0237 185.67 47.6778 185.194 46.5462C184.716 45.3974 184.051 44.5144 183.199 43.8972C182.347 43.2628 181.351 42.9456 180.21 42.9456C179.067 42.9456 178.071 43.2628 177.219 43.8972C176.367 44.5144 175.702 45.3974 175.226 46.5462C174.749 47.6778 174.509 49.0237 174.509 50.5839C174.509 52.1442 174.749 53.5072 175.226 54.6731C175.702 55.839 176.367 56.7477 177.219 57.3993C178.071 58.0337 179.067 58.3508 180.21 58.3508ZM192.691 59.1224V42.1741H193.866V49.6066H202.887V42.1741H204.064V59.1224H202.887V50.6354H193.866V59.1224H192.691ZM222.176 63.9574V59.1224H210.675V42.1741H211.85V58.0937H220.387V42.1741H221.562V58.0937H223.351V58.7623L223.172 63.9574H222.176ZM228.11 59.1224V42.1741H237.336V43.2028H229.285V49.6066H236.033V50.6354H229.285V58.0937H237.591V59.1224H228.11ZM242.925 59.1224V42.1741H254.17V59.1224H252.994V43.2028H244.1V59.1224H242.925ZM264.412 59.1224V43.2028H259.045V42.1741H270.956V43.2028H265.589V59.1224H264.412Z" fill="white"/>
<path d="M16.4562 0.739029H0.146851V44.6804H2.25129V26.945H16.4562V0.739029Z" fill="white" stroke="white"/>
<path d="M58.019 0.739029H33.2919V4.44493H46.9707V26.6803H58.019V0.739029Z" fill="white" stroke="white"/>
<path d="M21.7174 47.3275V5.76846H26.9785V52.6216H0.672974L3.82963 47.3275H21.7174Z" fill="white" stroke="white"/>
<path d="M36.4485 20.3273H31.1874V52.6216H57.4929L54.0731 47.3275H36.4485V20.3273Z" fill="white" stroke="white"/>
<path d="M2.25129 55.2686H0.146851V58.9746H58.0189V57.3864H2.25129V55.2686Z" fill="white" stroke="white"/>
</g>
<defs>
<clipPath id="clip0_82_266">
<rect width="271" height="64" fill="white"/>
</clipPath>
</defs>
</svg>
