<svg width="312" height="73" viewBox="0 0 312 73" fill="none" xmlns="http://www.w3.org/2000/svg">
<g clip-path="url(#clip0_16_40)">
<path d="M81.629 41.6421V0.846443H88.887V35.529H105.906V41.6421H81.629ZM113.036 41.6421V0.846443H120.294V41.6421H113.036ZM146.587 42.3907C143.041 42.3907 139.913 41.5381 137.202 39.8332C134.49 38.0866 132.363 35.6331 130.82 32.4725C129.318 29.2704 128.567 25.4653 128.567 21.0572C128.567 16.6491 129.318 12.8855 130.82 9.76661C132.363 6.64767 134.49 4.25649 137.202 2.59305C139.913 0.929617 143.041 0.0979004 146.587 0.0979004C150.174 0.0979004 153.324 0.929617 156.035 2.59305C158.746 4.25649 160.853 6.64767 162.355 9.76661C163.898 12.8855 164.67 16.6491 164.67 21.0572C164.67 25.4653 163.898 29.2704 162.355 32.4725C160.853 35.6331 158.746 38.0866 156.035 39.8332C153.324 41.5381 150.174 42.3907 146.587 42.3907ZM146.587 36.0904C149.799 36.0904 152.364 34.7388 154.283 32.0358C156.202 29.2912 157.161 25.6315 157.161 21.0572C157.161 16.4827 156.202 12.9063 154.283 10.328C152.364 7.70811 149.799 6.39815 146.587 6.39815C143.375 6.39815 140.81 7.70811 138.891 10.328C136.972 12.9063 136.013 16.4827 136.013 21.0572C136.013 25.6315 136.972 29.2912 138.891 32.0358C140.81 34.7388 143.375 36.0904 146.587 36.0904ZM172.855 41.6421V0.846443H180.3L193.065 23.8018L197.257 32.4725H197.507C197.341 30.3932 197.132 28.1267 196.881 25.6732C196.673 23.2197 196.568 20.8493 196.568 18.562V0.846443H203.514V41.6421H196.068L183.304 18.6868L179.112 10.0161H178.861C179.029 12.1786 179.217 14.445 179.425 16.8154C179.675 19.1858 179.8 21.5145 179.8 23.8018V41.6421H172.855ZM213.917 41.6421V0.846443H221.175V35.529H238.194V41.6421H213.917ZM258.574 42.3907C255.446 42.3907 252.715 41.7669 250.378 40.5193C248.043 39.2718 246.228 37.2756 244.934 34.531C243.683 31.7863 243.057 28.1891 243.057 23.7394V0.846443H250.315V24.3009C250.315 27.2534 250.65 29.603 251.316 31.3497C252.027 33.0546 253.006 34.2815 254.257 35.03C255.509 35.7369 256.948 36.0904 258.574 36.0904C260.244 36.0904 261.703 35.7369 262.954 35.03C264.248 34.2815 265.249 33.0546 265.958 31.3497C266.708 29.603 267.084 27.2534 267.084 24.3009V0.846443H274.029V23.7394C274.029 28.1891 273.403 31.7863 272.152 34.531C270.901 37.2756 269.108 39.2718 266.771 40.5193C264.478 41.7669 261.745 42.3907 258.574 42.3907ZM279.254 41.6421L290.892 20.6205L280.005 0.846443H288.077L292.582 9.89136C293.082 10.8063 293.562 11.7835 294.021 12.8232C294.521 13.8212 295.084 14.9233 295.71 16.1292H295.96C296.461 14.9233 296.919 13.8212 297.337 12.8232C297.795 11.7835 298.255 10.8063 298.713 9.89136L303.031 0.846443H310.727L299.84 20.9324L311.477 41.6421H303.406L298.401 32.0358C297.858 30.9546 297.317 29.8942 296.774 28.8545C296.273 27.7733 295.71 26.6089 295.084 25.3613H294.834C294.291 26.6089 293.77 27.7733 293.27 28.8545C292.812 29.8942 292.331 30.9546 291.831 32.0358L286.95 41.6421H279.254Z" fill="white"/>
<path d="M87.9844 67.8778C86.4327 67.8778 85.0578 67.4703 83.8596 66.6554C82.6615 65.8211 81.7187 64.657 81.0312 63.163C80.3437 61.669 80 59.9034 80 57.8661C80 55.8483 80.3437 54.1021 81.0312 52.6275C81.7187 51.1529 82.6615 50.0178 83.8596 49.2223C85.0578 48.4074 86.4327 48 87.9844 48C89.5558 48 90.9406 48.4074 92.1387 49.2223C93.3369 50.0178 94.2797 51.1529 94.9671 52.6275C95.6546 54.1021 95.9984 55.8483 95.9984 57.8661C95.9984 59.9034 95.6546 61.669 94.9671 63.163C94.2797 64.657 93.3369 65.8211 92.1387 66.6554C90.9406 67.4703 89.5558 67.8778 87.9844 67.8778ZM87.9844 66.6554C89.3005 66.6554 90.4495 66.2965 91.4316 65.5786C92.4137 64.8413 93.1797 63.813 93.7297 62.4936C94.2797 61.1742 94.5547 59.6317 94.5547 57.8661C94.5547 56.1005 94.2797 54.5774 93.7297 53.2969C93.1797 51.9969 92.4137 50.9977 91.4316 50.2992C90.4495 49.5813 89.3005 49.2223 87.9844 49.2223C86.6684 49.2223 85.5194 49.5813 84.5373 50.2992C83.5552 50.9977 82.7892 51.9969 82.2392 53.2969C81.6892 54.5774 81.4142 56.1005 81.4142 57.8661C81.4142 59.6317 81.6892 61.1742 82.2392 62.4936C82.7892 63.813 83.5552 64.8413 84.5373 65.5786C85.5194 66.2965 86.6684 66.6554 87.9844 66.6554ZM105.923 67.5285V49.5134H99.7361V48.3492H113.466V49.5134H107.279V67.5285H105.923ZM119.105 67.5285V48.3492H129.742V49.5134H120.461V56.7602H128.239V57.9243H120.461V66.3644H130.036V67.5285H119.105ZM134.799 67.8778C134.602 67.8778 134.396 67.8584 134.18 67.8196C133.964 67.7808 133.738 67.7225 133.502 67.6449L133.856 66.3644C134.013 66.4032 134.15 66.442 134.268 66.4808C134.406 66.5002 134.543 66.5099 134.681 66.5099C135.034 66.5099 135.358 66.3935 135.653 66.1607C135.967 65.9084 136.272 65.3943 136.566 64.6182C136.861 63.8421 137.165 62.6585 137.48 61.0675C137.873 58.9333 138.256 56.8475 138.629 54.8102C139.002 52.773 139.385 50.6193 139.778 48.3492H148.558V67.5285H147.202V49.5134H140.868C140.495 51.4924 140.141 53.4521 139.807 55.3923C139.493 57.3132 139.149 59.2534 138.776 61.213C138.442 63.0563 138.089 64.4629 137.715 65.4331C137.342 66.3838 136.92 67.0338 136.449 67.383C135.977 67.7128 135.427 67.8778 134.799 67.8778ZM156.196 67.5285V48.3492H157.552V56.702H161.735C163.837 56.702 165.516 57.1094 166.773 57.9243C168.031 58.7392 168.659 60.0489 168.659 61.8533C168.659 63.7354 168.06 65.1517 166.862 66.1024C165.683 67.0532 164.004 67.5285 161.824 67.5285H156.196ZM157.552 66.3935H161.5C163.425 66.3935 164.868 66.0345 165.831 65.3166C166.813 64.5988 167.304 63.4637 167.304 61.9115C167.304 60.4757 166.803 59.4377 165.801 58.7974C164.819 58.1572 163.346 57.837 161.382 57.837H157.552V66.3935ZM182.67 67.5285V48.3492H184.026V56.7602H188.063L190.919 51.638C191.49 50.5902 191.971 49.8141 192.364 49.3097C192.777 48.7858 193.17 48.4366 193.542 48.2619C193.915 48.0873 194.348 48 194.839 48C195.114 48 195.369 48.0485 195.605 48.1455L195.369 49.4261C195.232 49.3873 195.114 49.3679 195.015 49.3679C194.937 49.3679 194.848 49.3679 194.75 49.3679C194.475 49.3679 194.209 49.4261 193.955 49.5425C193.718 49.6589 193.444 49.9208 193.129 50.3283C192.834 50.7163 192.452 51.3275 191.981 52.1618L189.152 57.3132L196.018 67.5285H194.485L188.032 57.8952H184.026V67.5285H182.67ZM207.388 67.8778C205.835 67.8778 204.46 67.4703 203.263 66.6554C202.064 65.8211 201.121 64.657 200.434 63.163C199.746 61.669 199.403 59.9034 199.403 57.8661C199.403 55.8483 199.746 54.1021 200.434 52.6275C201.121 51.1529 202.064 50.0178 203.263 49.2223C204.46 48.4074 205.835 48 207.388 48C208.959 48 210.343 48.4074 211.542 49.2223C212.741 50.0178 213.682 51.1529 214.369 52.6275C215.057 54.1021 215.401 55.8483 215.401 57.8661C215.401 59.9034 215.057 61.669 214.369 63.163C213.682 64.657 212.741 65.8211 211.542 66.6554C210.343 67.4703 208.959 67.8778 207.388 67.8778ZM207.388 66.6554C208.704 66.6554 209.852 66.2965 210.834 65.5786C211.816 64.8413 212.583 63.813 213.133 62.4936C213.682 61.1742 213.958 59.6317 213.958 57.8661C213.958 56.1005 213.682 54.5774 213.133 53.2969C212.583 51.9969 211.816 50.9977 210.834 50.2992C209.852 49.5813 208.704 49.2223 207.388 49.2223C206.071 49.2223 204.923 49.5813 203.941 50.2992C202.959 50.9977 202.191 51.9969 201.643 53.2969C201.093 54.5774 200.817 56.1005 200.817 57.8661C200.817 59.6317 201.093 61.1742 201.643 62.4936C202.191 63.813 202.959 64.8413 203.941 65.5786C204.923 66.2965 206.071 66.6554 207.388 66.6554ZM221.776 67.5285V48.3492H223.13V56.7602H233.53V48.3492H234.887V67.5285H233.53V57.9243H223.13V67.5285H221.776ZM255.767 73V67.5285H242.508V48.3492H243.863V66.3644H253.704V48.3492H255.059V66.3644H257.121V67.1211L256.915 73H255.767ZM262.607 67.5285V48.3492H273.243V49.5134H263.962V56.7602H271.741V57.9243H263.962V66.3644H273.537V67.5285H262.607ZM279.686 67.5285V48.3492H292.649V67.5285H291.293V49.5134H281.04V67.5285H279.686ZM304.457 67.5285V49.5134H298.269V48.3492H312V49.5134H305.813V67.5285H304.457Z" fill="white"/>
<path d="M18.9459 0.843018H0.169128V50.9637H2.59196V30.7342H18.9459V0.843018Z" fill="white" stroke="white"/>
<path d="M66.7968 0.843018H38.3287V5.07006H54.077V30.4323H66.7968V0.843018Z" fill="white" stroke="white"/>
<path d="M25.0031 53.9828V6.57959H31.0601V60.0214H0.77478L4.40902 53.9828H25.0031Z" fill="white" stroke="white"/>
<path d="M41.9627 23.1858H35.9057V60.0215H66.191L62.2539 53.9829H41.9627V23.1858Z" fill="white" stroke="white"/>
<path d="M2.59196 63.0408H0.169128V67.2679H66.7968V65.4563H2.59196V63.0408Z" fill="white" stroke="white"/>
</g>
<defs>
<clipPath id="clip0_16_40">
<rect width="312" height="73" fill="white"/>
</clipPath>
</defs>
</svg>
