<svg id="1310" viewBox="0 0 185 185" xmlns="http://www.w3.org/2000/svg" xmlns:xlink="http://www.w3.org/1999/xlink"><g transform="matrix(1,0,0,1,0,0)"><g id="1310" opacity="1" style="mix-blend-mode:normal"><g><defs><clipPath id="1310_clipPath" x="-50%" y="-50%" width="200%" height="200%"><path d="M0,185v-185h185v185z" fill="white" clip-rule="nonzero"></path></clipPath></defs><g clip-path="url(#1310_clipPath)"><path id="1310_fill_path" d="M0,185v-185h185v185z" fill-rule="nonzero" fill="rgb(0, 0, 0)" fill-opacity="1" style="mix-blend-mode:NORMAL"></path><g transform="matrix(1,0,0,1,8,21)"><g id="133" opacity="1" style="mix-blend-mode:normal"><g><g><g transform="matrix(1,0,0,1,29,-83)"><g id="134" opacity="0" style="mix-blend-mode:normal"><g><g><path id="134_fill_path" d="M0,0h31v49.5h-27v33.5h-4z" fill-rule="nonzero" fill="rgb(255, 255, 255)" fill-opacity="1" style="mix-blend-mode:NORMAL"></path><path id="134_stroke_path" d="M0,0h31v49.5h-27v33.5h-4z" fill="none" stroke="rgb(255, 255, 255)" stroke-width="1" stroke-linecap="butt" stroke-linejoin="butt" stroke-dasharray="0 0" stroke-opacity="1"></path></g></g></g></g><g transform="matrix(1,0,0,1,92,-49)"><g id="135" opacity="0" style="mix-blend-mode:normal"><g><g><path id="135_fill_path" d="M0,0h47v49h-21v-42h-26z" fill-rule="nonzero" fill="rgb(255, 255, 255)" fill-opacity="1" style="mix-blend-mode:NORMAL"></path><path id="135_stroke_path" d="M0,0h47v49h-21v-42h-26z" fill="none" stroke="rgb(255, 255, 255)" stroke-width="1" stroke-linecap="butt" stroke-linejoin="butt" stroke-dasharray="0 0" stroke-opacity="1"></path></g></g></g></g><g transform="matrix(1,0,0,1,30,-79)"><g id="136" opacity="0" style="mix-blend-mode:normal"><g><g><path id="136_fill_path" d="M40,0v78.5h-34l-6,10h50v-88.5z" fill-rule="nonzero" fill="rgb(255, 255, 255)" fill-opacity="1" style="mix-blend-mode:NORMAL"></path><path id="136_stroke_path" d="M40,0v78.5h-34l-6,10h50v-88.5z" fill="none" stroke="rgb(255, 255, 255)" stroke-width="1" stroke-linecap="butt" stroke-linejoin="butt" stroke-dasharray="0 0" stroke-opacity="1"></path></g></g></g></g><g transform="matrix(1,0,0,1,88,-24)"><g id="137" opacity="0" style="mix-blend-mode:normal"><g><g><path id="137_fill_path" d="M0,0h10v51h33.5l6.5,10h-50z" fill-rule="nonzero" fill="rgb(255, 255, 255)" fill-opacity="1" style="mix-blend-mode:NORMAL"></path><path id="137_stroke_path" d="M0,0h10v51h33.5l6.5,10h-50z" fill="none" stroke="rgb(255, 255, 255)" stroke-width="1" stroke-linecap="butt" stroke-linejoin="butt" stroke-dasharray="0 0" stroke-opacity="1"></path></g></g></g></g><g transform="matrix(1,0,0,1,29,96)"><g id="138" opacity="0" style="mix-blend-mode:normal"><g><g><path id="138_fill_path" d="M0,0h4v4h106v3h-110z" fill-rule="nonzero" fill="rgb(255, 255, 255)" fill-opacity="1" style="mix-blend-mode:NORMAL"></path><path id="138_stroke_path" d="M0,0h4v4h106v3h-110z" fill="none" stroke="rgb(255, 255, 255)" stroke-width="1" stroke-linecap="butt" stroke-linejoin="butt" stroke-dasharray="0 0" stroke-opacity="1"></path></g></g></g></g><g transform="matrix(1,0,0,1,0,142)"><g id="139" opacity="0" style="mix-blend-mode:normal"><g><g><path id="139_fill_path" d="M5.81625,14.31199c-1.13034,0 -2.13191,-0.29337 -3.00471,-0.88009c-0.8728,-0.6007 -1.55959,-1.43888 -2.06037,-2.51455c-0.50078,-1.07567 -0.75118,-2.34691 -0.75118,-3.81374c0,-1.45285 0.25039,-2.71013 0.75118,-3.77183c0.50078,-1.0617 1.18758,-1.87893 2.06037,-2.45169c0.8728,-0.58673 1.87436,-0.88009 3.00471,-0.88009c1.14465,0 2.15337,0.29336 3.02617,0.88009c0.8728,0.57276 1.55958,1.38999 2.06037,2.45169c0.50078,1.0617 0.75118,2.31898 0.75118,3.77183c0,1.46682 -0.2504,2.73807 -0.75118,3.81374c-0.50078,1.07567 -1.18757,1.91385 -2.06037,2.51455c-0.8728,0.58673 -1.88152,0.88009 -3.02617,0.88009zM5.81625,13.4319c0.95864,0 1.79567,-0.25844 2.51107,-0.77532c0.71541,-0.53085 1.27343,-1.27125 1.67405,-2.22119c0.40063,-0.94994 0.60094,-2.06054 0.60094,-3.33178c0,-1.27125 -0.20032,-2.36787 -0.60094,-3.28987c-0.40063,-0.93597 -0.95865,-1.65541 -1.67405,-2.15832c-0.71541,-0.51688 -1.55243,-0.77532 -2.51107,-0.77532c-0.95864,0 -1.79567,0.25844 -2.51108,0.77532c-0.71541,0.50291 -1.27342,1.22235 -1.67405,2.15832c-0.40063,0.922 -0.60094,2.01863 -0.60094,3.28987c0,1.27125 0.20032,2.38184 0.60094,3.33178c0.40063,0.94994 0.95864,1.69034 1.67405,2.22119c0.71541,0.51688 1.55243,0.77532 2.51108,0.77532zM18.88378,14.06053v-12.9709h-4.50707v-0.83818h10.00139v0.83818h-4.50707v12.9709zM28.48626,14.06053v-13.80908h7.74786v0.83818h-6.76059v5.21769h5.66602v0.83818h-5.66602v6.07684h6.97521v0.83818zM39.91796,14.31199c-0.14308,0 -0.29332,-0.01397 -0.45071,-0.04191c-0.15739,-0.02794 -0.32193,-0.06985 -0.49363,-0.12572l0.25755,-0.922c0.11447,0.02794 0.21463,0.05588 0.30048,0.08382c0.10016,0.01397 0.20031,0.02096 0.30047,0.02096c0.25755,0 0.49363,-0.08382 0.70825,-0.25146c0.22893,-0.18161 0.4507,-0.5518 0.66533,-1.11059c0.21462,-0.55879 0.4364,-1.41094 0.66533,-2.55646c0.28616,-1.53667 0.56517,-3.03842 0.83702,-4.50524c0.27185,-1.46682 0.55086,-3.01746 0.83703,-4.65192h6.39573v13.80908h-0.98726v-12.9709h-4.61438c-0.27185,1.42491 -0.5294,2.83585 -0.77264,4.23283c-0.22893,1.383 -0.47933,2.77998 -0.75118,4.19092c-0.24324,1.32712 -0.50078,2.33993 -0.77264,3.03841c-0.27185,0.68452 -0.57948,1.15251 -0.92287,1.40396c-0.3434,0.23749 -0.74403,0.35623 -1.20189,0.35623zM55.50507,14.06053v-13.80908h0.98726v6.01397h3.04763c1.53097,0 2.75432,0.29336 3.67004,0.88009c0.91572,0.58673 1.37358,1.52969 1.37358,2.82887c0,1.35506 -0.4364,2.37485 -1.3092,3.05937c-0.85849,0.68452 -2.08183,1.02678 -3.67003,1.02678zM56.49233,13.2433h2.87594c1.4022,0 2.45385,-0.25844 3.15494,-0.77532c0.71541,-0.51688 1.07311,-1.33411 1.07311,-2.45169c0,-1.03376 -0.36486,-1.78114 -1.09458,-2.24214c-0.71541,-0.461 -1.78851,-0.6915 -3.21933,-0.6915h-2.79009zM74.7896,14.06053v-13.80908h0.988v6.05588h2.94056l2.08085,-3.68801c0.41568,-0.75437 0.76598,-1.31316 1.05214,-1.67637c0.30096,-0.37718 0.58712,-0.62864 0.85848,-0.75436c0.27136,-0.12573 0.58713,-0.18859 0.94483,-0.18859c0.19982,0 0.38608,0.03492 0.55753,0.10477l-0.17145,0.922c-0.09991,-0.02794 -0.18626,-0.04191 -0.2578,-0.04191c-0.05674,0 -0.12211,0 -0.19365,0c-0.19982,0 -0.39347,0.04191 -0.57849,0.12572c-0.17268,0.08382 -0.37251,0.27241 -0.60193,0.56577c-0.21462,0.27939 -0.49339,0.71944 -0.83629,1.32014l-2.06112,3.70896l5.00169,7.35506h-1.11629l-4.70071,-6.93597h-2.91835v6.93597zM92.79564,14.31199c-1.13108,0 -2.13265,-0.29337 -3.00471,-0.88009c-0.87329,-0.6007 -1.56034,-1.43888 -2.06112,-2.51455c-0.50078,-1.07567 -0.75117,-2.34691 -0.75117,-3.81374c0,-1.45285 0.25039,-2.71013 0.75117,-3.77183c0.50078,-1.0617 1.18783,-1.87893 2.06112,-2.45169c0.87206,-0.58673 1.87362,-0.88009 3.00471,-0.88009c1.14465,0 2.15239,0.29336 3.02568,0.88009c0.87329,0.57276 1.55909,1.38999 2.05987,2.45169c0.50078,1.0617 0.75117,2.31898 0.75117,3.77183c0,1.46682 -0.25039,2.73807 -0.75117,3.81374c-0.50078,1.07567 -1.18658,1.91385 -2.05987,2.51455c-0.87329,0.58673 -1.88103,0.88009 -3.02568,0.88009zM92.79564,13.4319c0.9584,0 1.79468,-0.25844 2.51009,-0.77532c0.71541,-0.53085 1.27416,-1.27125 1.67503,-2.22119c0.39964,-0.94994 0.60069,-2.06054 0.60069,-3.33178c0,-1.27125 -0.20105,-2.36787 -0.60069,-3.28987c-0.40087,-0.93597 -0.95963,-1.65541 -1.67503,-2.15832c-0.71541,-0.51688 -1.55169,-0.77532 -2.51009,-0.77532c-0.95963,0 -1.79592,0.25844 -2.51132,0.77532c-0.71541,0.50291 -1.27417,1.22235 -1.67381,2.15832c-0.40087,0.922 -0.60193,2.01863 -0.60193,3.28987c0,1.27125 0.20105,2.38184 0.60193,3.33178c0.39964,0.94994 0.95841,1.69034 1.67381,2.22119c0.71541,0.51688 1.55169,0.77532 2.51132,0.77532zM103.27634,14.06053v-13.80908h0.98677v6.05588h7.57591v-6.05588h0.988v13.80908h-0.988v-6.91502h-7.57591v6.91502zM128.03682,18v-3.93947h-9.65799v-13.80908h0.98677v12.9709h7.16887v-12.9709h0.98677v12.9709h1.50235v0.54482l-0.15048,4.23283zM133.01999,14.06053v-13.80908h7.74737v0.83818h-6.7606v5.21769h5.66651v0.83818h-5.66651v6.07684h6.97522v0.83818zM145.46067,14.06053v-13.80908h9.44337v13.80908h-0.988v-12.9709h-7.4686v12.9709zM163.50496,14.06053v-12.9709h-4.50707v-0.83818h10.00211v0.83818h-4.50704v12.9709z" fill-rule="nonzero" fill="rgb(255, 255, 255)" fill-opacity="1" style="mix-blend-mode:NORMAL"></path></g></g></g></g></g></g></g></g></g></g></g></g><animateTransform href="#134" attributeName="transform" type="translate" values="0 0;0 0;0 86.60801000000001;0 83;0 83" dur="3s" repeatCount="indefinite" calcMode="spline" keyTimes="0;0.1;0.4;0.6;1" keySplines="0.33 0 0.67 1;0.33 0 0.67 1;0.33 0 0.67 1;0.33 0 0.67 1" additive="sum" fill="freeze"></animateTransform><animate href="#134" attributeName="opacity" values="0;0;1.0435;1;1" dur="3s" repeatCount="indefinite" calcMode="spline" keyTimes="0;0.1;0.4;0.6;1" keySplines="0.33 0 0.67 1;0.33 0 0.67 1;0.33 0 0.67 1;0.33 0 0.67 1" additive="sum" fill="freeze"></animate><animateTransform href="#135" attributeName="transform" type="translate" values="0 0;0 0;0 51.130030000000005;0 49;0 49" dur="3s" repeatCount="indefinite" calcMode="spline" keyTimes="0;0.14;0.44;0.64;1" keySplines="0.33 0 0.67 1;0.33 0 0.67 1;0.33 0 0.67 1;0.33 0 0.67 1" additive="sum" fill="freeze"></animateTransform><animate href="#135" attributeName="opacity" values="0;0;1.0435;1;1" dur="3s" repeatCount="indefinite" calcMode="spline" keyTimes="0;0.14;0.44;0.64;1" keySplines="0.33 0 0.67 1;0.33 0 0.67 1;0.33 0 0.67 1;0.33 0 0.67 1" additive="sum" fill="freeze"></animate><animateTransform href="#136" attributeName="transform" type="translate" values="0 0;0 0;0 92.34709500000001;0 88.5;0 88.5" dur="3s" repeatCount="indefinite" calcMode="spline" keyTimes="0;0.07;0.37;0.57;1" keySplines="0.33 0 0.67 1;0.33 0 0.67 1;0.33 0 0.67 1;0.33 0 0.67 1" additive="sum" fill="freeze"></animateTransform><animate href="#136" attributeName="opacity" values="0;0;1.0435;1;1" dur="3s" repeatCount="indefinite" calcMode="spline" keyTimes="0;0.07;0.37;0.57;1" keySplines="0.33 0 0.67 1;0.33 0 0.67 1;0.33 0 0.67 1;0.33 0 0.67 1" additive="sum" fill="freeze"></animate><animateTransform href="#137" attributeName="transform" type="translate" values="0 0;0 0;0 63.65167000000001;0 61;0 61" dur="3s" repeatCount="indefinite" calcMode="spline" keyTimes="0;0.04;0.34;0.54;1" keySplines="0.33 0 0.67 1;0.33 0 0.67 1;0.33 0 0.67 1;0.33 0 0.67 1" additive="sum" fill="freeze"></animateTransform><animate href="#137" attributeName="opacity" values="0;0;1.0435;1;1" dur="3s" repeatCount="indefinite" calcMode="spline" keyTimes="0;0.04;0.34;0.54;1" keySplines="0.33 0 0.67 1;0.33 0 0.67 1;0.33 0 0.67 1;0.33 0 0.67 1" additive="sum" fill="freeze"></animate><animateTransform href="#138" attributeName="transform" type="translate" values="0 0;0 7.304289999999995;0 7;0 7" dur="3s" repeatCount="indefinite" calcMode="spline" keyTimes="0;0.3;0.5;1" keySplines="0.33 0 0.67 1;0.33 0 0.67 1;0.33 0 0.67 1" additive="sum" fill="freeze"></animateTransform><animate href="#138" attributeName="opacity" values="0;1.0435;1;1" dur="3s" repeatCount="indefinite" calcMode="spline" keyTimes="0;0.3;0.5;1" keySplines="0.33 0 0.67 1;0.33 0 0.67 1;0.33 0 0.67 1" additive="sum" fill="freeze"></animate><animateTransform href="#139" attributeName="transform" type="translate" values="0 0;0 0;0 -1.68137999999999;0 -4.129829999999998;0 -6.319979999999987;0 -8.178300000000007;0 -9.742680000000007;0 -11.058210000000003;0 -12.16413;0 -13.093829999999997;0 -13.87566000000001;0 -14.532659999999993;0 -15.085170000000005;0 -15.549480000000003;0 -15.939809999999994;0 -16.26813;0 -16.543980000000005;0 -16.775819999999996;0 -16.97085;0 -17.134829999999994;0 -17.272620000000003;0 -17.388450000000006;0 -17.485739999999993;0 -17.567639999999997;0 -17.636669999999995;0 -17.694450000000003;0 -17.743049999999997;0 -18;0 -18" dur="3s" repeatCount="indefinite" calcMode="spline" keyTimes="0;0.33;0.35;0.37;0.38;0.4;0.41;0.43;0.44;0.46;0.48;0.49;0.51;0.52;0.54;0.56;0.57;0.59;0.6;0.62;0.64;0.65;0.67;0.68;0.7;0.72;0.73;0.73;1" keySplines="0.33 0 0.67 1;0.33 0 1 1;0 0 1 1;0 0 1 1;0 0 1 1;0 0 1 1;0 0 1 1;0 0 1 1;0 0 1 1;0 0 1 1;0 0 1 1;0 0 1 1;0 0 1 1;0 0 1 1;0 0 1 1;0 0 1 1;0 0 1 1;0 0 1 1;0 0 1 1;0 0 1 1;0 0 1 1;0 0 1 1;0 0 1 1;0 0 1 1;0 0 1 1;0 0 1 1;0 0 0.67 1;0.33 0 0.67 1" additive="sum" fill="freeze"></animateTransform><animate href="#139" attributeName="opacity" values="0;0;0.0934;0.2294;0.3511;0.4544;0.5413;0.6143;0.6758;0.7274;0.7709;0.8074;0.8381;0.8639;0.8855;0.9038;0.9191;0.932;0.9428;0.9519;0.9596;0.966;0.9714;0.976;0.9798;0.983;0.9857;1;1" dur="3s" repeatCount="indefinite" calcMode="spline" keyTimes="0;0.33;0.35;0.37;0.38;0.4;0.41;0.43;0.44;0.46;0.48;0.49;0.51;0.52;0.54;0.56;0.57;0.59;0.6;0.62;0.64;0.65;0.67;0.68;0.7;0.72;0.73;0.73;1" keySplines="0.33 0 0.67 1;0.33 0 1 1;0 0 1 1;0 0 1 1;0 0 1 1;0 0 1 1;0 0 1 1;0 0 1 1;0 0 1 1;0 0 1 1;0 0 1 1;0 0 1 1;0 0 1 1;0 0 1 1;0 0 1 1;0 0 1 1;0 0 1 1;0 0 1 1;0 0 1 1;0 0 1 1;0 0 1 1;0 0 1 1;0 0 1 1;0 0 1 1;0 0 1 1;0 0 1 1;0 0 0.67 1;0.33 0 0.67 1" additive="sum" fill="freeze"></animate></svg>