<svg id="9290" viewBox="0 0 83 40" xmlns="http://www.w3.org/2000/svg" xmlns:xlink="http://www.w3.org/1999/xlink"><g transform="matrix(1,0,0,1,0,0)"><g id="9290" opacity="1" style="mix-blend-mode:normal"><g><defs><clipPath id="9290_clipPath" x="-50%" y="-50%" width="200%" height="200%"><path d="M0,40v-40h83v40z" fill="white" clip-rule="nonzero"></path></clipPath></defs><g clip-path="url(#9290_clipPath)"><path id="9290_fill_path" d="M0,40v-40h83v40z" fill-rule="nonzero" fill="rgb(255, 255, 255)" fill-opacity="1" style="mix-blend-mode:NORMAL"></path><g transform="matrix(1,0,0,1,0,0)"><g id="7113" opacity="1" style="mix-blend-mode:normal"><g><g><g transform="matrix(1,0,0,1,0,0)"><g id="6103" opacity="1" style="mix-blend-mode:normal"><g><g><path id="6103_fill_path" d="M2.656,31v-20.928h4.192l3.712,10.24c0.2347,0.6613 0.4587,1.344 0.672,2.048c0.2347,0.6827 0.4587,1.3653 0.672,2.048h0.128c0.2347,-0.6827 0.4587,-1.3653 0.672,-2.048c0.2133,-0.704 0.4267,-1.3867 0.64,-2.048l3.616,-10.24h4.224v20.928h-3.424v-9.568c0,-0.6613 0.0213,-1.376 0.064,-2.144c0.064,-0.7893 0.128,-1.5787 0.192,-2.368c0.0853,-0.7893 0.16,-1.504 0.224,-2.144h-0.128l-1.696,4.864l-3.424,9.408h-2.208l-3.456,-9.408l-1.664,-4.864h-0.128c0.064,0.64 0.128,1.3547 0.192,2.144c0.08533,0.7893 0.14933,1.5787 0.192,2.368c0.064,0.768 0.096,1.4827 0.096,2.144v9.568zM32.8997,31.384c-1.4506,0 -2.7626,-0.32 -3.9359,-0.96c-1.1734,-0.6613 -2.1014,-1.6 -2.784,-2.816c-0.6827,-1.2373 -1.024,-2.72 -1.024,-4.448c0,-1.7067 0.3413,-3.1787 1.024,-4.416c0.704,-1.2373 1.6106,-2.1867 2.7199,-2.848c1.1094,-0.6613 2.2721,-0.992 3.488,-0.992c1.4294,0 2.624,0.32 3.584,0.96c0.9601,0.6187 1.6854,1.4933 2.1761,2.624c0.4906,1.1093 0.736,2.4 0.736,3.872c0,0.768 -0.0534,1.3653 -0.16,1.792h-9.9841c0.1707,1.3867 0.6721,2.464 1.504,3.232c0.8321,0.768 1.8774,1.152 3.136,1.152c0.6827,0 1.312,-0.096 1.888,-0.288c0.5974,-0.2133 1.1841,-0.5013 1.7601,-0.864l1.2479,2.304c-0.7466,0.4907 -1.5786,0.896 -2.4959,1.216c-0.9174,0.32 -1.8774,0.48 -2.8801,0.48zM28.7078,21.656h6.976c0,-1.216 -0.2667,-2.1653 -0.8,-2.848c-0.5334,-0.704 -1.3334,-1.056 -2.4001,-1.056c-0.9173,0 -1.7386,0.3413 -2.4639,1.024c-0.704,0.6613 -1.1414,1.6213 -1.312,2.88zM42.3985,31v-15.712h3.68v6.016h6.272v-6.016h3.68v15.712h-3.68v-6.464h-6.272v6.464zM74.119,28.376c1.088,0 1.92,-0.48 2.496,-1.44c0.5973,-0.96 0.896,-2.2187 0.896,-3.776c0,-1.5787 -0.2987,-2.848 -0.896,-3.808c-0.576,-0.96 -1.408,-1.44 -2.496,-1.44c-1.0453,0 -1.888,0.48 -2.528,1.44c-0.64,0.96 -0.96,2.2293 -0.96,3.808c0,1.5573 0.32,2.816 0.96,3.776c0.64,0.96 1.4827,1.44 2.528,1.44zM74.311,31.384c-1.856,0 -3.4347,-0.5973 -4.736,-1.792c-1.28,-1.1947 -2.048,-2.8587 -2.304,-4.992h-2.88v6.4h-3.68v-15.712h3.68v6.048h2.912c0.32,-2.0267 1.12,-3.6053 2.4,-4.736c1.28,-1.1307 2.816,-1.696 4.608,-1.696c1.3013,0 2.4747,0.3307 3.52,0.992c1.0453,0.64 1.8773,1.5787 2.496,2.816c0.64,1.216 0.96,2.6987 0.96,4.448c0,1.728 -0.32,3.2107 -0.96,4.448c-0.6187,1.216 -1.4507,2.1547 -2.496,2.816c-1.0453,0.64 -2.2187,0.96 -3.52,0.96z" fill-rule="nonzero" fill="rgb(0, 0, 0)" fill-opacity="1" style="mix-blend-mode:NORMAL"></path></g></g></g></g><defs><mask id="7114_mask" style="mask-type:alpha" x="-50%" y="-50%" width="200%" height="200%"><g transform="matrix(1,0,0,1,0,0)"><g id="7114" opacity="1" style="mix-blend-mode:normal"><g><g><path id="7114_fill_path" d="M2.656,31v-20.928h4.192l3.712,10.24c0.2347,0.6613 0.4587,1.344 0.672,2.048c0.2347,0.6827 0.4587,1.3653 0.672,2.048h0.128c0.2347,-0.6827 0.4587,-1.3653 0.672,-2.048c0.2133,-0.704 0.4267,-1.3867 0.64,-2.048l3.616,-10.24h4.224v20.928h-3.424v-9.568c0,-0.6613 0.0213,-1.376 0.064,-2.144c0.064,-0.7893 0.128,-1.5787 0.192,-2.368c0.0853,-0.7893 0.16,-1.504 0.224,-2.144h-0.128l-1.696,4.864l-3.424,9.408h-2.208l-3.456,-9.408l-1.664,-4.864h-0.128c0.064,0.64 0.128,1.3547 0.192,2.144c0.08533,0.7893 0.14933,1.5787 0.192,2.368c0.064,0.768 0.096,1.4827 0.096,2.144v9.568zM32.8997,31.384c-1.4506,0 -2.7626,-0.32 -3.9359,-0.96c-1.1734,-0.6613 -2.1014,-1.6 -2.784,-2.816c-0.6827,-1.2373 -1.024,-2.72 -1.024,-4.448c0,-1.7067 0.3413,-3.1787 1.024,-4.416c0.704,-1.2373 1.6106,-2.1867 2.7199,-2.848c1.1094,-0.6613 2.2721,-0.992 3.488,-0.992c1.4294,0 2.624,0.32 3.584,0.96c0.9601,0.6187 1.6854,1.4933 2.1761,2.624c0.4906,1.1093 0.736,2.4 0.736,3.872c0,0.768 -0.0534,1.3653 -0.16,1.792h-9.9841c0.1707,1.3867 0.6721,2.464 1.504,3.232c0.8321,0.768 1.8774,1.152 3.136,1.152c0.6827,0 1.312,-0.096 1.888,-0.288c0.5974,-0.2133 1.1841,-0.5013 1.7601,-0.864l1.2479,2.304c-0.7466,0.4907 -1.5786,0.896 -2.4959,1.216c-0.9174,0.32 -1.8774,0.48 -2.8801,0.48zM28.7078,21.656h6.976c0,-1.216 -0.2667,-2.1653 -0.8,-2.848c-0.5334,-0.704 -1.3334,-1.056 -2.4001,-1.056c-0.9173,0 -1.7386,0.3413 -2.4639,1.024c-0.704,0.6613 -1.1414,1.6213 -1.312,2.88zM42.3985,31v-15.712h3.68v6.016h6.272v-6.016h3.68v15.712h-3.68v-6.464h-6.272v6.464zM74.119,28.376c1.088,0 1.92,-0.48 2.496,-1.44c0.5973,-0.96 0.896,-2.2187 0.896,-3.776c0,-1.5787 -0.2987,-2.848 -0.896,-3.808c-0.576,-0.96 -1.408,-1.44 -2.496,-1.44c-1.0453,0 -1.888,0.48 -2.528,1.44c-0.64,0.96 -0.96,2.2293 -0.96,3.808c0,1.5573 0.32,2.816 0.96,3.776c0.64,0.96 1.4827,1.44 2.528,1.44zM74.311,31.384c-1.856,0 -3.4347,-0.5973 -4.736,-1.792c-1.28,-1.1947 -2.048,-2.8587 -2.304,-4.992h-2.88v6.4h-3.68v-15.712h3.68v6.048h2.912c0.32,-2.0267 1.12,-3.6053 2.4,-4.736c1.28,-1.1307 2.816,-1.696 4.608,-1.696c1.3013,0 2.4747,0.3307 3.52,0.992c1.0453,0.64 1.8773,1.5787 2.496,2.816c0.64,1.216 0.96,2.6987 0.96,4.448c0,1.728 -0.32,3.2107 -0.96,4.448c-0.6187,1.216 -1.4507,2.1547 -2.496,2.816c-1.0453,0.64 -2.2187,0.96 -3.52,0.96z" fill-rule="nonzero" fill="rgb(0, 0, 0)" fill-opacity="1" style="mix-blend-mode:NORMAL"></path></g></g></g></g></mask></defs><g mask="url(#7114_mask)"><g transform="matrix(1,0,0,1,68,21)"><g id="6112" opacity="1" style="mix-blend-mode:normal"><g><g><g transform="matrix(1,0,0,1,-11.5814,12.883699999999997)"><g id="6110" opacity="1" style="mix-blend-mode:normal"><g><g><path id="6110_stroke_path" d="M0,15.0233l14.5814,-15.0233" fill="none" stroke="rgb(0, 133, 163)" stroke-width="4" stroke-linecap="round" stroke-linejoin="round" stroke-dasharray="0 0" stroke-opacity="1"></path></g></g></g></g><g transform="matrix(1,0,0,1,1.7599999999999998,12.29)"><g id="6109" opacity="1" style="mix-blend-mode:normal"><g><g><path id="6109_fill_path" d="M4.4186,2.2093c0,0.2318 -0.0364,0.4622 -0.108,0.6827c-0.0716,0.2205 -0.1777,0.4283 -0.314,0.6159c-0.1363,0.1876 -0.3011,0.3524 -0.4887,0.4887c-0.1876,0.1363 -0.3954,0.2424 -0.6159,0.314c-0.2205,0.0716 -0.4509,0.108 -0.6827,0.108c-0.2318,0 -0.4622,-0.0364 -0.6827,-0.108c-0.2205,-0.0716 -0.4283,-0.1777 -0.6159,-0.314c-0.1876,-0.1363 -0.3524,-0.3011 -0.4887,-0.4887c-0.1363,-0.1876 -0.2424,-0.3954 -0.314,-0.6159c-0.0716,-0.2205 -0.108,-0.4509 -0.108,-0.6827c0,-0.2318 0.0364,-0.4622 0.108,-0.6827c0.0716,-0.2205 0.1777,-0.4283 0.314,-0.6159c0.1363,-0.1876 0.3011,-0.3524 0.4887,-0.4887c0.1876,-0.1363 0.3954,-0.2424 0.6159,-0.314c0.2205,-0.0716 0.4509,-0.108 0.6827,-0.108c0.2318,0 0.4622,0.0364 0.6827,0.108c0.2205,0.0716 0.4283,0.1777 0.6159,0.314c0.1876,0.1363 0.3524,0.3011 0.4887,0.4887c0.1363,0.1876 0.2424,0.3954 0.314,0.6159c0.0716,0.2205 0.108,0.4509 0.108,0.6827z" fill-rule="nonzero" fill="rgb(0, 172, 209)" fill-opacity="1" style="mix-blend-mode:NORMAL"></path></g></g></g></g><g transform="matrix(1,0,0,1,5.299999999999999,12.95)"><g id="6111" opacity="1" style="mix-blend-mode:normal"><g><g><path id="6111_fill_path" d="M7.0698,3.5349c0,0.3708 -0.0584,0.7395 -0.1729,1.0923c-0.1145,0.3528 -0.2842,0.6854 -0.5023,0.9855c-0.2181,0.3001 -0.4818,0.5638 -0.7819,0.7819c-0.3001,0.2181 -0.6327,0.3878 -0.9855,0.5023c-0.3528,0.1145 -0.7215,0.1729 -1.0923,0.1729c-0.3708,0 -0.7395,-0.0584 -1.0923,-0.1729c-0.3528,-0.1145 -0.6854,-0.2842 -0.9855,-0.5023c-0.3001,-0.2181 -0.5638,-0.4818 -0.7819,-0.7819c-0.2181,-0.3001 -0.3878,-0.6327 -0.5023,-0.9855c-0.1145,-0.3528 -0.1729,-0.7215 -0.1729,-1.0923c0,-0.3708 0.0584,-0.7395 0.1729,-1.0923c0.1145,-0.3528 0.2842,-0.6854 0.5023,-0.9855c0.2181,-0.3001 0.4818,-0.5638 0.7819,-0.7819c0.3001,-0.2181 0.6327,-0.3878 0.9855,-0.5023c0.3528,-0.1145 0.7215,-0.1729 1.0923,-0.1729c0.3708,0 0.7395,0.0584 1.0923,0.1729c0.3528,0.1145 0.6854,0.2842 0.9855,0.5023c0.3001,0.2181 0.5638,0.4818 0.7819,0.7819c0.2181,0.3001 0.3878,0.6327 0.5023,0.9855c0.1145,0.3528 0.1729,0.7215 0.1729,1.0923z" fill-rule="nonzero" fill="rgb(0, 172, 209)" fill-opacity="1" style="mix-blend-mode:NORMAL"></path></g></g></g></g><g transform="matrix(1,0,0,1,-6.1628,13)"><g id="6105" opacity="1" style="mix-blend-mode:normal"><g><g><path id="6105_stroke_path" d="M0,15.0233l14.5814,-15.0233" fill="none" stroke="rgb(0, 209, 255)" stroke-width="4" stroke-linecap="round" stroke-linejoin="round" stroke-dasharray="0 0" stroke-opacity="1"></path></g></g></g></g></g></g></g></g></g></g></g></g></g></g></g></g></g><animateTransform href="#6110" attributeName="transform" type="translate" values="0 0;27.581400000000002 -29;27.581400000000002 -29" dur="10s" repeatCount="indefinite" calcMode="spline" keyTimes="0;1;1" keySplines="0 0 1 1;0.5 0.35 1 1" additive="sum" fill="freeze"></animateTransform><animateTransform href="#6109" attributeName="transform" type="translate" values="0 0;0 0;-1 -28.4186;-1 -28.4186" dur="10s" repeatCount="indefinite" calcMode="spline" keyTimes="0;0;1;1" keySplines="0.5 0.35 0.15 1;0.5 0.35 0.15 1;0.5 0.35 0.15 1" additive="sum" fill="freeze"></animateTransform><animate href="#6109" attributeName="opacity" values="1;0;1;0;1;1" dur="10s" repeatCount="indefinite" calcMode="spline" keyTimes="0;0.02;0.34;1;1;1" keySplines="0.5 0.35 0.15 1;0.5 0.35 0.15 1;0.5 0.35 0.15 1;0.5 0.35 0.15 1;0.5 0.35 0.15 1" additive="sum" fill="freeze"></animate><animateTransform href="#6111" attributeName="transform" type="translate" values="0 0;0 0;0 -14.5332;0 -2.0698000000000008;0 -2.0698000000000008" dur="10s" repeatCount="indefinite" calcMode="spline" keyTimes="0;0;0.6;1;1" keySplines="0.5 0.35 0.15 1;0.5 0.35 0.15 1;0.5 0.35 0.15 1;0.5 0.35 0.15 1" additive="sum" fill="freeze"></animateTransform><animate href="#6111" attributeName="opacity" values="1;1;0;0" dur="10s" repeatCount="indefinite" calcMode="spline" keyTimes="0;0.54;1;1" keySplines="0.5 0.35 0.15 1;0.5 0.35 0.15 1;0.5 0.35 0.15 1" additive="sum" fill="freeze"></animate><animateTransform href="#6105" attributeName="transform" type="translate" values="0 0;23.581400000000002 -25;23.581400000000002 -25" dur="10s" repeatCount="indefinite" calcMode="spline" keyTimes="0;1;1" keySplines="0 0 1 1;0.5 0.35 1 1" additive="sum" fill="freeze"></animateTransform></svg>