<svg width="22" height="25" viewBox="0 0 22 25" fill="none" xmlns="http://www.w3.org/2000/svg">
<g id="phone-nav">
<path id="Vector" d="M21.9069 18.75V23.6133C21.9069 24.0088 21.817 24.3066 21.556 24.6045C21.2908 24.9072 21.0383 25 20.6917 25C15.553 24.8975 9.56287 23.0322 5.64787 18.5645C1.73287 14.0967 0.0898525 7.25098 0 1.38672C0 0.991211 0.085574 0.698243 0.346574 0.400391C0.607574 0.10254 0.864295 0 1.21515 0H5.47672L6.57207 7.5L4.52685 10.5322C5.13443 12.5 6.35385 14.5898 7.74015 16.1768C9.13072 17.7637 10.9534 19.1406 12.6735 19.834L15.3305 17.5L21.9069 18.75Z" fill="#E3E1E1"/>
</g>
</svg>
