<svg width="28" height="28" viewBox="0 0 28 28" fill="none" xmlns="http://www.w3.org/2000/svg">
<g id="pdf_svgrepo.com">
<path id="Vector" d="M7 0C6.0375 0 5.25 0.7875 5.25 1.75V26.25C5.25 27.2125 6.0375 28 7 28H24.5C25.4625 28 26.25 27.2125 26.25 26.25V7L19.25 0H7Z" fill="#E2E5E7"/>
<path id="Vector_2" d="M21 7H26.25L19.25 0V5.25C19.25 6.2125 20.0375 7 21 7Z" fill="#B0B7BD"/>
<path id="Vector_3" d="M26.25 12.25L21 7H26.25V12.25Z" fill="#CAD1D8"/>
<path id="Vector_4" d="M22.75 22.75C22.75 23.2312 22.3563 23.625 21.875 23.625H2.625C2.14375 23.625 1.75 23.2312 1.75 22.75V14C1.75 13.5187 2.14375 13.125 2.625 13.125H21.875C22.3563 13.125 22.75 13.5187 22.75 14V22.75Z" fill="url(#paint0_linear_88_30)"/>
<g id="Group">
<path id="Vector_5" d="M5.56396 16.5787C5.56396 16.3477 5.74596 16.0957 6.03909 16.0957H7.65521C8.56521 16.0957 9.38422 16.7047 9.38422 17.872C9.38422 18.978 8.56521 19.594 7.65521 19.594H6.48709V20.518C6.48709 20.826 6.29109 21.0001 6.03909 21.0001C5.80809 21.0001 5.56396 20.826 5.56396 20.518V16.5787ZM6.48709 16.9768V18.7198H7.65521C8.12421 18.7198 8.49521 18.306 8.49521 17.872C8.49521 17.3828 8.12421 16.9768 7.65521 16.9768H6.48709Z" fill="white"/>
<path id="Vector_6" d="M10.7545 21.0001C10.5235 21.0001 10.2715 20.8741 10.2715 20.5669V16.5927C10.2715 16.3416 10.5235 16.1587 10.7545 16.1587H12.3566C15.5539 16.1587 15.4839 21.0001 12.4196 21.0001H10.7545ZM11.1955 17.0127V20.1469H12.3566C14.2457 20.1469 14.3297 17.0127 12.3566 17.0127H11.1955Z" fill="white"/>
<path id="Vector_7" d="M16.6179 17.0686V18.1807H18.402C18.654 18.1807 18.906 18.4327 18.906 18.6768C18.906 18.9078 18.654 19.0968 18.402 19.0968H16.6179V20.566C16.6179 20.811 16.4438 20.9991 16.1988 20.9991C15.8908 20.9991 15.7026 20.811 15.7026 20.566V16.5917C15.7026 16.3406 15.8916 16.1577 16.1988 16.1577H18.6549C18.9629 16.1577 19.1449 16.3406 19.1449 16.5917C19.1449 16.8157 18.9629 17.0677 18.6549 17.0677H16.6179V17.0686Z" fill="white"/>
</g>
<path id="Vector_8" d="M21.875 23.625H5.25V24.5H21.875C22.3563 24.5 22.75 24.1063 22.75 23.625V22.75C22.75 23.2313 22.3563 23.625 21.875 23.625Z" fill="#CAD1D8"/>
</g>
<defs>
<linearGradient id="paint0_linear_88_30" x1="-2.1875" y1="12.4688" x2="6.7375" y2="30.3188" gradientUnits="userSpaceOnUse">
<stop stop-color="#12266D"/>
<stop offset="1" stop-color="#00D1FF"/>
</linearGradient>
</defs>
</svg>
