<svg width="100" height="100" viewBox="0 0 100 100" fill="none" xmlns="http://www.w3.org/2000/svg">
<g clip-path="url(#clip0_110_12)">
<mask id="mask0_110_12" style="mask-type:luminance" maskUnits="userSpaceOnUse" x="0" y="0" width="100" height="100">
<path d="M0 100V0H100V100H0Z" fill="white"/>
</mask>
<g mask="url(#mask0_110_12)">
<path d="M93.6275 75V94.4531C93.6275 96.0352 93.2681 97.2266 92.2241 98.418C91.163 99.6289 90.1533 100 88.7669 100C68.2121 99.5898 44.2515 92.1289 28.5915 74.2578C12.9315 56.3867 6.3594 29.0039 6 5.54688C6 3.96484 6.34228 2.79296 7.38628 1.60156C8.43028 0.41016 9.45716 0 10.8606 0H27.9068L32.2882 30L24.1074 42.1289C26.5376 50 31.4154 58.3594 36.9605 64.707C42.5228 71.0547 49.8137 76.5625 56.6939 79.3359L67.3221 70L93.6275 75Z" fill="white"/>
<mask id="mask1_110_12" style="mask-type:alpha" maskUnits="userSpaceOnUse" x="6" y="0" width="88" height="100">
<path d="M93.6275 75V94.4531C93.6275 96.0352 93.2681 97.2266 92.2241 98.418C91.163 99.6289 90.1533 100 88.7669 100C68.2121 99.5898 44.2515 92.1289 28.5915 74.2578C12.9315 56.3867 6.3594 29.0039 6 5.54688C6 3.96484 6.34228 2.79296 7.38628 1.60156C8.43028 0.41016 9.45716 0 10.8606 0H27.9068L32.2882 30L24.1074 42.1289C26.5376 50 31.4154 58.3594 36.9605 64.707C42.5228 71.0547 49.8137 76.5625 56.6939 79.3359L67.3221 70L93.6275 75Z" fill="#03081A"/>
</mask>
<g mask="url(#mask1_110_12)">
<path d="M114 48C114 51.3568 113.472 54.6944 112.435 57.888C111.398 61.0816 109.862 64.0928 107.888 66.8096C105.914 69.5264 103.526 71.9136 100.81 73.888C98.0928 75.8624 95.0816 77.3984 91.888 78.4352C88.6944 79.472 85.3568 80 82 80C78.6432 80 75.3056 79.472 72.112 78.4352C68.9184 77.3984 65.9072 75.8624 63.1904 73.888C60.4736 71.9136 58.0864 69.5264 56.112 66.8096C54.1376 64.0928 52.6016 61.0816 51.5648 57.888C50.528 54.6944 50 51.3568 50 48C50 44.6432 50.528 41.3056 51.5648 38.112C52.6016 34.9184 54.1376 31.9072 56.112 29.1904C58.0864 26.4736 60.4736 24.0864 63.1904 22.112C65.9072 20.1376 68.9184 18.6016 72.112 17.5648C75.3056 16.528 78.6432 16 82 16C85.3568 16 88.6944 16.528 91.888 17.5648C95.0816 18.6016 98.0928 20.1376 100.81 22.112C103.526 24.0864 105.914 26.4736 107.888 29.1904C109.862 31.9072 111.398 34.9184 112.435 38.112C113.472 41.3056 114 44.6432 114 48Z" fill="white"/>
</g>
</g>
</g>
<defs>
<clipPath id="clip0_110_12">
<rect width="100" height="100" fill="white"/>
</clipPath>
</defs>
</svg>
