<svg id="eHQsaJo9Ewl1" xmlns="http://www.w3.org/2000/svg" xmlns:xlink="http://www.w3.org/1999/xlink" viewBox="0 0 100 100" shape-rendering="geometricPrecision" text-rendering="geometricPrecision">
<style><![CDATA[
#eHQsaJo9Ewl9_tr {animation: eHQsaJo9Ewl9_tr__tr 5000ms linear infinite normal forwards}@keyframes eHQsaJo9Ewl9_tr__tr { 0% {transform: translate(82px,48px) rotate(0deg)} 100% {transform: translate(82px,48px) rotate(360deg)}}
]]></style>
<defs><linearGradient id="eHQsaJo9Ewl9-fill" x1="38" y1="12" x2="106" y2="80" spreadMethod="pad" gradientUnits="userSpaceOnUse" gradientTransform="translate(0 0)"><stop id="eHQsaJo9Ewl9-fill-0" offset="0%" stop-color="#12266d"/><stop id="eHQsaJo9Ewl9-fill-1" offset="100%" stop-color="#00d1ff"/></linearGradient></defs><g clip-path="url(#eHQsaJo9Ewl14)"><g><g mask="url(#eHQsaJo9Ewl12)"><g><path d="M93.6275,75v19.4531c0,1.5821-.3594,2.7735-1.4034,3.9649C91.163,99.6289,90.1533,100,88.7669,100c-20.5548-.4102-44.5154-7.8711-60.1754-25.7422s-22.2321-45.2539-22.5915-68.71092c0-1.58204.34228-2.75392,1.38628-3.94532s2.07088-1.60156,3.47432-1.60156h17.0462l4.3814,30-8.1808,12.1289C26.5376,50,31.4154,58.3594,36.9605,64.707c5.5623,6.3477,12.8532,11.8555,19.7334,14.6289L67.3221,70l26.3054,5Z" fill="#03081a"/><g mask="url(#eHQsaJo9Ewl10)"><g><g id="eHQsaJo9Ewl9_tr" transform="translate(82,48) rotate(0)"><path d="M114,48c0,3.3568-.528,6.6944-1.565,9.888s-2.573,6.2048-4.547,8.9216-4.362,5.104-7.078,7.0784c-2.7172,1.9744-5.7284,3.5104-8.922,4.5472s-6.5312,1.5648-9.888,1.5648-6.6944-.528-9.888-1.5648-6.2048-2.5728-8.9216-4.5472-5.104-4.3616-7.0784-7.0784-3.5104-5.728-4.5472-8.9216-1.5648-6.5312-1.5648-9.888.528-6.6944,1.5648-9.888s2.5728-6.2048,4.5472-8.9216s4.3616-5.104,7.0784-7.0784s5.728-3.5104,8.9216-4.5472s6.5312-1.5648,9.888-1.5648s6.6944.528,9.888,1.5648s6.2048,2.5728,8.922,4.5472c2.716,1.9744,5.104,4.3616,7.078,7.0784s3.51,5.728,4.547,8.9216s1.565,6.5312,1.565,9.888Z" transform="translate(-82,-48)" fill="url(#eHQsaJo9Ewl9-fill)"/></g></g><mask id="eHQsaJo9Ewl10" mask-type="alpha" x="-150%" y="-150%" height="400%" width="400%"><path d="M93.6275,75v19.4531c0,1.5821-.3594,2.7735-1.4034,3.9649C91.163,99.6289,90.1533,100,88.7669,100c-20.5548-.4102-44.5154-7.8711-60.1754-25.7422s-22.2321-45.2539-22.5915-68.71092c0-1.58204.34228-2.75392,1.38628-3.94532s2.07088-1.60156,3.47432-1.60156h17.0462l4.3814,30-8.1808,12.1289C26.5376,50,31.4154,58.3594,36.9605,64.707c5.5623,6.3477,12.8532,11.8555,19.7334,14.6289L67.3221,70l26.3054,5Z" fill="#03081a"/></mask></g></g><mask id="eHQsaJo9Ewl12" mask-type="luminance" x="-150%" y="-150%" height="400%" width="400%"><path d="M0,100L0,0h100v100h-100Z" fill="#fff"/></mask></g></g><clipPath id="eHQsaJo9Ewl14"><rect width="100" height="100" rx="0" ry="0" fill="#fff"/></clipPath></g></svg>
