<svg width="18" height="20" viewBox="0 0 18 20" fill="none" xmlns="http://www.w3.org/2000/svg">
<g id="phone-icon">
<path id="Vector" d="M17.1137 14.6475V18.4467C17.1137 18.7557 17.0435 18.9883 16.8396 19.221C16.6323 19.4575 16.4351 19.53 16.1644 19.53C12.15 19.4499 7.47051 17.9928 4.41211 14.5026C1.35372 11.0123 0.0701927 5.66446 0 1.0833C0 0.774334 0.0668504 0.545467 0.270744 0.312786C0.474637 0.080104 0.675187 0 0.949273 0H4.27841L5.1341 5.859L3.53638 8.22778C4.01101 9.765 4.96363 11.3976 6.0466 12.6373C7.13292 13.877 8.55683 14.9527 9.90052 15.4943L11.9762 13.671L17.1137 14.6475Z" fill="url(#paint0_linear_80_35)"/>
</g>
<defs>
<linearGradient id="paint0_linear_80_35" x1="-3.20881" y1="-1.22063" x2="17.3621" y2="16.8052" gradientUnits="userSpaceOnUse">
<stop stop-color="#12266D"/>
<stop offset="1" stop-color="#00D1FF"/>
</linearGradient>
</defs>
</svg>
