<svg width="21" height="19" viewBox="0 0 21 19" fill="none" xmlns="http://www.w3.org/2000/svg">
<g id="Frame" clip-path="url(#clip0_82_362)">
<path id="Vector" d="M2.46145 18.0795C0.971536 18.0265 0.644906 16.7089 0.605591 15.1923L3.21948 3.53775H19.9745V18.0265L2.46145 18.0795Z" fill="#03081A" stroke="#03081A"/>
<path id="Vector_2" d="M0.605591 1.89552C0.605591 0.624115 1.92156 0.261751 3.21948 0.12085V13.2058C1.64597 13.2181 1.17518 13.7702 0.605591 15.1129V1.89552Z" fill="#091C5C" stroke="#091C5C"/>
<path id="Vector_3" d="M14.2805 3.67799L9.53442 8.54485C9.47305 8.60779 9.47419 8.70945 9.53703 8.7709L11.0351 10.2366C11.0962 10.2964 11.1934 10.296 11.254 10.2355L16.0404 5.4619C16.1025 5.39997 16.1029 5.29864 16.0413 5.23623L14.5029 3.67732C14.4414 3.61499 14.3416 3.61529 14.2805 3.67799Z" fill="url(#paint0_linear_82_362)" stroke="url(#paint1_linear_82_362)"/>
<path id="Vector_4" d="M9.28626 8.97599L8.58223 11.0341C8.57727 11.0486 8.57868 11.0647 8.58668 11.0778C8.64821 11.1787 8.70875 11.222 8.83395 11.2637C8.84477 11.2673 8.85654 11.2671 8.86725 11.2632L10.8654 10.5375C10.9018 10.5244 10.9119 10.4771 10.8843 10.4498L9.37215 8.95538C9.34471 8.92831 9.29881 8.93928 9.28626 8.97599Z" fill="url(#paint2_linear_82_362)" stroke="url(#paint3_linear_82_362)"/>
<path id="Vector_5" d="M12.8124 11.9873H5.28444C5.15452 11.9873 5.04919 12.0941 5.04919 12.2257C5.04919 12.3574 5.15452 12.4641 5.28444 12.4641H12.8124C12.9424 12.4641 13.0477 12.3574 13.0477 12.2257C13.0477 12.0941 12.9424 11.9873 12.8124 11.9873Z" fill="url(#paint4_linear_82_362)"/>
<path id="Vector_6" d="M20.236 7.47111V17.9826C20.236 18.0997 20.1423 18.1945 20.0268 18.1945H9.5314C9.34456 18.1945 9.2515 17.9651 9.38444 17.8319L19.8798 7.3204C20.012 7.18812 20.236 7.28294 20.236 7.47111Z" fill="url(#paint5_linear_82_362)" stroke="url(#paint6_linear_82_362)"/>
<path id="Vector_7" d="M18.6415 12.9764C18.6415 12.8301 18.7585 12.7115 18.9029 12.7115H20.2621V13.2413H18.9029C18.7585 13.2413 18.6415 13.1227 18.6415 12.9764Z" fill="#03081A"/>
<path id="Vector_8" d="M18.6415 14.3008C18.6415 14.1545 18.7585 14.0359 18.9029 14.0359H20.2621V14.5657H18.9029C18.7585 14.5657 18.6415 14.4471 18.6415 14.3008Z" fill="#03081A"/>
<path id="Vector_9" d="M18.6415 15.6252C18.6415 15.4789 18.7585 15.3603 18.9029 15.3603H20.2621V15.89H18.9029C18.7585 15.89 18.6415 15.7714 18.6415 15.6252Z" fill="#03081A"/>
<path id="Vector_10" d="M18.5892 11.652C18.5892 11.5058 18.7063 11.3872 18.8506 11.3872H20.2098V11.9169H18.8506C18.7063 11.9169 18.5892 11.7983 18.5892 11.652Z" fill="#03081A"/>
<path id="Vector_11" d="M18.1187 12.1915V16.102C18.1187 16.1898 18.0485 16.2609 17.9619 16.2609H14.0569C13.9167 16.2609 13.847 16.0888 13.9467 15.989L17.8516 12.0785C17.9507 11.9793 18.1187 12.0503 18.1187 12.1915Z" fill="#03081A" stroke="#03081A"/>
</g>
<defs>
<linearGradient id="paint0_linear_82_362" x1="8.25199" y1="3.21512" x2="15.3178" y2="10.2254" gradientUnits="userSpaceOnUse">
<stop stop-color="#12266D"/>
<stop offset="1" stop-color="#00D1FF"/>
</linearGradient>
<linearGradient id="paint1_linear_82_362" x1="8.25199" y1="3.21512" x2="15.3178" y2="10.2254" gradientUnits="userSpaceOnUse">
<stop stop-color="#12266D"/>
<stop offset="1" stop-color="#00D1FF"/>
</linearGradient>
<linearGradient id="paint2_linear_82_362" x1="8.14421" y1="8.79495" x2="10.6155" y2="11.2607" gradientUnits="userSpaceOnUse">
<stop stop-color="#12266D"/>
<stop offset="1" stop-color="#00D1FF"/>
</linearGradient>
<linearGradient id="paint3_linear_82_362" x1="8.14421" y1="8.79495" x2="10.6155" y2="11.2607" gradientUnits="userSpaceOnUse">
<stop stop-color="#12266D"/>
<stop offset="1" stop-color="#00D1FF"/>
</linearGradient>
<linearGradient id="paint4_linear_82_362" x1="3.54947" y1="11.9575" x2="3.60965" y2="12.9671" gradientUnits="userSpaceOnUse">
<stop stop-color="#12266D"/>
<stop offset="1" stop-color="#00D1FF"/>
</linearGradient>
<linearGradient id="paint5_linear_82_362" x1="7.27551" y1="6.5753" x2="18.8947" y2="18.1715" gradientUnits="userSpaceOnUse">
<stop stop-color="#12266D"/>
<stop offset="1" stop-color="#00D1FF"/>
</linearGradient>
<linearGradient id="paint6_linear_82_362" x1="7.27551" y1="6.5753" x2="18.8947" y2="18.1715" gradientUnits="userSpaceOnUse">
<stop stop-color="#12266D"/>
<stop offset="1" stop-color="#00D1FF"/>
</linearGradient>
<clipPath id="clip0_82_362">
<rect width="20.3883" height="18.8592" fill="white" transform="translate(0.553345 0.0678711)"/>
</clipPath>
</defs>
</svg>
