<svg width="24" height="25" viewBox="0 0 24 25" fill="none" xmlns="http://www.w3.org/2000/svg">
<g id="ruler_svgrepo.com">
<path id="Vector" d="M2.38659 8.24193C1.99607 7.85139 1.99609 7.21821 2.38664 6.8277L6.08792 3.12677C6.47845 2.73628 7.1116 2.7363 7.50211 3.12682L21.7835 17.4086C22.174 17.7992 22.174 18.4324 21.7834 18.8229L18.0822 22.5238C17.6916 22.9143 17.0585 22.9143 16.668 22.5238L2.38659 8.24193Z" fill="#03081A"/>
<path id="Vector_2" d="M11.9943 12.2321L14.3066 9.91988L15.0073 10.6206L12.695 12.9328L11.9943 12.2321ZM14.9627 13.2282L16.259 11.9318L16.9598 12.6325L15.6634 13.9289L14.9627 13.2282ZM15.9587 16.197L18.271 13.8848L18.9717 14.5855L16.6595 16.8977L15.9587 16.197ZM20.2428 15.8754L20.9435 16.5766L19.6471 17.8725L18.9464 17.1718L20.2428 15.8754ZM7.03389 5.29789L8.33024 4.00153L9.03095 4.70223L7.73459 5.99859L7.03389 5.29789ZM8.02994 8.26673L10.3422 5.95449L11.0429 6.6552L8.73065 8.96743L8.02994 8.26673ZM10.9983 9.26328L12.2946 7.96692L12.9954 8.66763L11.699 9.96399L10.9983 9.26328Z" fill="url(#paint0_linear_82_350)"/>
</g>
<defs>
<linearGradient id="paint0_linear_82_350" x1="21.8128" y1="1.40072" x2="7.07501" y2="16.1796" gradientUnits="userSpaceOnUse">
<stop stop-color="#12266D"/>
<stop offset="1" stop-color="#00D1FF"/>
</linearGradient>
</defs>
</svg>
