<svg width="21" height="21" viewBox="0 0 21 21" fill="none" xmlns="http://www.w3.org/2000/svg">
<g id="Group 10">
<g id="Group">
<path id="Vector" d="M1.06673 18.5654C0.966873 18.4655 0.910941 18.329 0.91275 18.1876C0.914559 18.0463 0.972916 17.9115 1.07516 17.8135L11.2412 7.88499L13.0107 9.65452L3.10392 19.8423C3.00649 19.9445 2.87114 20.0035 2.72979 20.0047C2.58844 20.0065 2.4519 19.9511 2.35205 19.8507L1.06673 18.5654Z" fill="#03081A"/>
<path id="Vector_2" d="M7.8388 1.34896C9.16565 0.830483 12.7522 0.576651 14.597 2.42137C15.5762 3.40059 17.5159 5.34092 17.5159 5.34092C18.0259 5.85035 17.5526 6.35559 17.9291 6.73214C18.3056 7.10869 18.9077 6.73214 19.2463 7.07139L20.489 8.31398C20.6658 8.49083 20.6658 8.77772 20.489 8.95395L18.7579 10.6856C18.5811 10.8624 18.2942 10.863 18.1173 10.6856L16.8747 9.44294C16.5354 9.10431 16.9126 8.50222 16.5361 8.12571C16.0278 7.61685 15.4733 7.70347 15.1539 8.02347L14.5133 8.66343L13.8204 8.84567L12.0509 7.07555L12.2548 6.40429C12.8196 5.8395 12.8996 5.18572 12.5459 4.83203C10.2669 2.61018 8.54432 2.56268 7.69745 2.22405C7.15734 2.00817 7.32155 1.47106 7.8388 1.34896ZM12.5495 4.83569C12.5525 4.83811 12.5538 4.83931 12.5495 4.83569Z" fill="#03081A"/>
</g>
<g id="Group_2">
<path id="Vector_3" d="M18.748 20.4387C19.1794 20.0072 18.9868 19.2622 18.3453 18.4729C17.7777 17.7573 14.7457 14.0097 12.8585 12.0485C11.6689 10.6816 10.5094 9.61787 9.65133 9.38382L7.69315 11.3418C7.92696 12.2 8.99066 13.3596 10.3579 14.5491C12.319 16.4366 16.0666 19.4686 16.782 20.036C17.5715 20.6774 18.3162 20.8703 18.748 20.4387Z" fill="url(#paint0_linear_82_375)"/>
<path id="Vector_4" d="M8.25774 7.94595L6.24508 9.95837L7.25165 10.9649L9.26428 8.95228L8.25774 7.94595Z" fill="url(#paint1_linear_82_375)"/>
<path id="Vector_5" d="M4.72133 2.78413C4.49394 2.55702 4.12566 2.55702 3.89831 2.78413L1.08309 5.59934C0.855955 5.82673 0.855955 6.19498 1.08309 6.42211L2.6407 7.97948L6.27844 4.34153L4.72133 2.78413Z" fill="url(#paint2_linear_82_375)"/>
<path id="Vector_6" d="M7.87061 7.55868C7.29 6.97829 8.2771 6.3395 7.05768 5.12032L6.69014 4.75253L3.05187 8.39056L3.41966 8.75859C4.6388 9.97749 5.27759 8.99063 5.85798 9.57131L7.87061 7.55868Z" fill="url(#paint3_linear_82_375)"/>
</g>
</g>
<defs>
<linearGradient id="paint0_linear_82_375" x1="19.6849" y1="7.2676" x2="7.69301" y2="19.2593" gradientUnits="userSpaceOnUse">
<stop stop-color="#12266D"/>
<stop offset="1" stop-color="#00D1FF"/>
</linearGradient>
<linearGradient id="paint1_linear_82_375" x1="9.45298" y1="7.3799" x2="6.24534" y2="10.5878" gradientUnits="userSpaceOnUse">
<stop stop-color="#12266D"/>
<stop offset="1" stop-color="#00D1FF"/>
</linearGradient>
<linearGradient id="paint2_linear_82_375" x1="6.6138" y1="1.60774" x2="0.912767" y2="7.3088" gradientUnits="userSpaceOnUse">
<stop stop-color="#12266D"/>
<stop offset="1" stop-color="#00D1FF"/>
</linearGradient>
<linearGradient id="paint3_linear_82_375" x1="8.17178" y1="3.84901" x2="3.05183" y2="8.96892" gradientUnits="userSpaceOnUse">
<stop stop-color="#12266D"/>
<stop offset="1" stop-color="#00D1FF"/>
</linearGradient>
</defs>
</svg>
