<svg width="18" height="20" viewBox="0 0 18 20" fill="none" xmlns="http://www.w3.org/2000/svg">
<g id="Group 1">
<path id="Vector" d="M17.5438 14.6097V18.3815C17.5438 18.6882 17.4741 18.9192 17.2716 19.1502C17.0659 19.385 16.8701 19.457 16.6013 19.457C12.6159 19.3774 7.97013 17.9308 4.93378 14.4658C1.89743 11.0007 0.623154 5.69139 0.553467 1.14325C0.553467 0.836508 0.619835 0.609292 0.822259 0.378287C1.02468 0.147283 1.22379 0.0677567 1.4959 0.0677567H4.80104L5.65055 5.88452L4.06435 8.23622C4.53557 9.76236 5.48132 11.3832 6.55648 12.6139C7.63497 13.8447 9.04861 14.9126 10.3826 15.4504L12.4434 13.6402L17.5438 14.6097Z" fill="#03081A"/>
<mask id="mask0_82_335" style="mask-type:alpha" maskUnits="userSpaceOnUse" x="0" y="0" width="18" height="20">
<path id="mask" d="M17.5438 14.6097V18.3815C17.5438 18.6882 17.4741 18.9192 17.2716 19.1502C17.0659 19.385 16.8701 19.457 16.6013 19.457C12.6159 19.3774 7.97013 17.9308 4.93378 14.4658C1.89743 11.0007 0.623154 5.69139 0.553467 1.14325C0.553467 0.836508 0.619835 0.609292 0.822259 0.378287C1.02468 0.147283 1.22379 0.0677567 1.4959 0.0677567H4.80104L5.65055 5.88452L4.06435 8.23622C4.53557 9.76236 5.48132 11.3832 6.55648 12.6139C7.63497 13.8447 9.04861 14.9126 10.3826 15.4504L12.4434 13.6402L17.5438 14.6097Z" fill="#03081A"/>
</mask>
<g mask="url(#mask0_82_335)">
<circle id="Ellipse 1" cx="15.2896" cy="9.37496" r="6.20455" fill="url(#paint0_linear_82_335)"/>
</g>
</g>
<defs>
<linearGradient id="paint0_linear_82_335" x1="6.75838" y1="2.39484" x2="19.943" y2="15.5795" gradientUnits="userSpaceOnUse">
<stop stop-color="#12266D"/>
<stop offset="1" stop-color="#00D1FF"/>
</linearGradient>
</defs>
</svg>
