<svg width="40" height="40" viewBox="0 0 40 40" fill="none" xmlns="http://www.w3.org/2000/svg">
<g id="telegram_svgrepo.com">
<path id="Vector" d="M27.6526 12.55C27.6601 12.55 27.6701 12.55 27.6801 12.55C27.9413 12.55 28.1838 12.6313 28.3826 12.7713L28.3788 12.7688C28.5238 12.895 28.6213 13.0725 28.6451 13.2725V13.2763C28.6701 13.4288 28.6838 13.6038 28.6838 13.7825C28.6838 13.8638 28.6813 13.9438 28.6751 14.0238V14.0125C28.3938 16.9738 27.1738 24.155 26.5538 27.47C26.2913 28.8738 25.7751 29.3438 25.2751 29.3888C24.1888 29.49 23.3638 28.6713 22.3113 27.9813C20.6638 26.9 19.7326 26.2275 18.1338 25.1737C16.2851 23.9575 17.4838 23.2862 18.5363 22.1937C18.8126 21.9062 23.6013 17.55 23.6951 17.155C23.7001 17.1313 23.7026 17.105 23.7026 17.0775C23.7026 16.98 23.6663 16.8912 23.6076 16.8237C23.5426 16.7812 23.4613 16.7575 23.3763 16.7575C23.3201 16.7575 23.2663 16.7688 23.2163 16.7875L23.2188 16.7863C23.0538 16.8238 20.4222 18.5629 15.3238 22.0038C14.7676 22.4425 14.0651 22.72 13.3001 22.7525H13.2926C12.2088 22.6213 11.2251 22.38 10.2913 22.0363L10.3838 22.0662C9.21135 21.6838 8.2801 21.4825 8.3601 20.835C8.4026 20.4983 8.86676 20.1537 9.7526 19.8013C15.2093 17.4237 18.848 15.8567 20.6688 15.1C22.6776 14.0338 25.0063 13.1562 27.4551 12.5875L27.6513 12.5487L27.6526 12.55ZM19.9126 1.28125C9.5351 1.30625 1.13135 9.725 1.13135 20.1062C1.13135 30.5025 9.55885 38.9313 19.9563 38.9313C30.3538 38.9313 38.7813 30.5037 38.7813 20.1062C38.7813 9.725 30.3776 1.30625 20.0026 1.28125H20.0001C19.9709 1.28125 19.9418 1.28125 19.9126 1.28125Z" fill="url(#paint0_linear_80_7)"/>
</g>
<defs>
<linearGradient id="paint0_linear_80_7" x1="-5.92803" y1="-1.07188" x2="34.0751" y2="38.9312" gradientUnits="userSpaceOnUse">
<stop stop-color="#12266D"/>
<stop offset="1" stop-color="#00D1FF"/>
</linearGradient>
</defs>
</svg>
